<mxfile host="app.diagrams.net" modified="2024-03-16T08:46:17.647Z" agent="Mozilla/5.0 (Windows NT 10.0; Win64; x64) AppleWebKit/537.36 (KHTML, like Gecko) Chrome/122.0.0.0 Safari/537.36 Edg/122.0.0.0" version="22.1.16" etag="G5fWC7-ZUpxWpmfm6d02" type="github">
  <diagram name="第 1 页" id="i1SByviwk1auPKrnwh-n">
    <mxGraphModel>
      <root>
        <mxCell id="0" />
        <mxCell id="1" parent="0" />
      </root>
    </mxGraphModel>
  </diagram>
</mxfile>
